# xmcd
#
# Track frame offsets:
# 150
# 10409
# 22003
# 33575
# 46095
# 56940
# 76220
# 88763
# 104270
# 115025
# 126088
# 141507
# 152880
# 176157
# 185595
# 204082
# 217762
# 231316
# 254036
# 268249
#
# Disc length: 3804 seconds
#
#
# Revision: 0
# Processed by: cddbd v1.5.1PL0 Copyright (c) Steve Scherf et al.
# Submitted via: FreeRIP 2.60 
#
DISCID=230eda14
DTITLE=Various Artist - Trucker's Jukebox
DYEAR=2005
DGENRE=Country
TTITLE0=Movin' On- Merle Haggard and The Strangers
TTITLE1=Truck Drivin' Man -Buck Owens
TTITLE2=Roll On Big Mama-Joe Stampley
TTITLE3=I've Been Everywhere-Hank Snow
TTITLE4=Lookin' At The World Through A Windshield-Del Reeves
TTITLE5=Roll On (18 Wheeler)-Alabama
TTITLE6=East Bound And Down-Jerry Reed
TTITLE7=Phantom 309-Boxcar Willie
TTITLE8=Six Days On The Road-Dave Dudley
TTITLE9=Diesel On My Tail-Jim and Jesse
TTITLE10=I'm A Truck-Red Simpson
TTITLE11=On The Road Again- Willie Nelson
TTITLE12=Mama Hated Diesels-Commander Cody
TTITLE13=I'm Comin' Home-Johnny Horton
TTITLE14=The White Night-Cledus Maggard
TTITLE15=A Tombstone Every Mile-Dick Curless
TTITLE16=Widow Maker-Jimmy Martin
TTITLE17=Teddy Bear-Boxcar Willie
TTITLE18=White Line Fever-Merle Haggard and The Strangers
TTITLE19=Convoy-C.W. McCall
EXTD=
EXTT0=
EXTT1=
EXTT2=
EXTT3=
EXTT4=
EXTT5=
EXTT6=
EXTT7=
EXTT8=
EXTT9=
EXTT10=
EXTT11=
EXTT12=
EXTT13=
EXTT14=
EXTT15=
EXTT16=
EXTT17=
EXTT18=
EXTT19=
PLAYORDER=
